<svg xmlns="http://www.w3.org/2000/svg" xmlns:xlink="http://www.w3.org/1999/xlink" width="500" zoomAndPan="magnify" viewBox="0 0 375 374.999991" height="500" preserveAspectRatio="xMidYMid meet" version="1.0"><defs><g/><clipPath id="ea967c5fdd"><path d="M 11 0.121094 L 86 0.121094 L 86 112 L 11 112 Z M 11 0.121094 " clip-rule="nonzero"/></clipPath><clipPath id="c90be7c49c"><path d="M 241 29 L 290.679688 29 L 290.679688 112 L 241 112 Z M 241 29 " clip-rule="nonzero"/></clipPath><clipPath id="72e99758ff"><rect x="0" width="291" y="0" height="138"/></clipPath><clipPath id="e8a69211ee"><path d="M 216.59375 206.261719 L 250.601562 206.261719 L 250.601562 228.425781 L 216.59375 228.425781 Z M 216.59375 206.261719 " clip-rule="nonzero"/></clipPath><clipPath id="69e7449583"><path d="M 0.59375 0.261719 L 34.601562 0.261719 L 34.601562 22.425781 L 0.59375 22.425781 Z M 0.59375 0.261719 " clip-rule="nonzero"/></clipPath><clipPath id="976a3f4e21"><rect x="0" width="35" y="0" height="23"/></clipPath><clipPath id="acefba7ec7"><path d="M 243.777344 119.054688 L 277.785156 119.054688 L 277.785156 141.21875 L 243.777344 141.21875 Z M 243.777344 119.054688 " clip-rule="nonzero"/></clipPath><clipPath id="430f950e98"><path d="M 0.777344 0.0546875 L 34.785156 0.0546875 L 34.785156 22.21875 L 0.777344 22.21875 Z M 0.777344 0.0546875 " clip-rule="nonzero"/></clipPath><clipPath id="b35205c14e"><rect x="0" width="35" y="0" height="23"/></clipPath><clipPath id="67ae0c0086"><path d="M 216.597656 119.050781 L 238.761719 119.050781 L 238.761719 228.421875 L 216.597656 228.421875 Z M 216.597656 119.050781 " clip-rule="nonzero"/></clipPath><clipPath id="57a891fee2"><path d="M 0.597656 0.0507812 L 22.761719 0.0507812 L 22.761719 109.421875 L 0.597656 109.421875 Z M 0.597656 0.0507812 " clip-rule="nonzero"/></clipPath><clipPath id="ba5ae25316"><rect x="0" width="23" y="0" height="110"/></clipPath><clipPath id="67164a79bd"><path d="M 255.621094 119.050781 L 277.785156 119.050781 L 277.785156 228.421875 L 255.621094 228.421875 Z M 255.621094 119.050781 " clip-rule="nonzero"/></clipPath><clipPath id="9377736372"><path d="M 0.621094 0.0507812 L 22.785156 0.0507812 L 22.785156 109.421875 L 0.621094 109.421875 Z M 0.621094 0.0507812 " clip-rule="nonzero"/></clipPath><clipPath id="055f93a2f5"><rect x="0" width="23" y="0" height="110"/></clipPath></defs><g transform="matrix(1, 0, 0, 1, 41, 117)"><g clip-path="url(#72e99758ff)"><g clip-path="url(#ea967c5fdd)"><g fill="#0e7c66" fill-opacity="1"><g transform="translate(0.805748, 111.032075)"><g><path d="M 85.171875 0 L 58.53125 0 L 32.5 -38.828125 L 32.5 0 L 10.53125 0 L 10.53125 -110.609375 L 32.5 -110.609375 L 32.5 -45.140625 L 56.890625 -81.265625 L 82.171875 -81.265625 L 54.78125 -42.59375 Z M 85.171875 0 "/></g></g></g></g><g fill="#0e7c66" fill-opacity="1"><g transform="translate(77.704698, 111.032075)"><g><path d="M 76.890625 -81.40625 L 93.296875 -81.40625 L 93.296875 -0.15625 L 76 -0.15625 L 74.1875 -7.375 C 70.675781 -4.363281 66.6875 -2.003906 62.21875 -0.296875 C 57.757812 1.398438 52.972656 2.25 47.859375 2.25 C 39.734375 2.25 32.457031 0.367188 26.03125 -3.390625 C 19.613281 -7.148438 14.546875 -12.265625 10.828125 -18.734375 C 7.117188 -25.203125 5.265625 -32.550781 5.265625 -40.78125 C 5.265625 -48.90625 7.117188 -56.203125 10.828125 -62.671875 C 14.546875 -69.148438 19.613281 -74.242188 26.03125 -77.953125 C 32.457031 -81.660156 39.734375 -83.515625 47.859375 -83.515625 C 53.066406 -83.515625 57.925781 -82.632812 62.4375 -80.875 C 66.957031 -79.125 70.972656 -76.695312 74.484375 -73.59375 Z M 49.65625 -18.515625 C 53.875 -18.515625 57.660156 -19.46875 61.015625 -21.375 C 64.378906 -23.28125 67.015625 -25.910156 68.921875 -29.265625 C 70.828125 -32.628906 71.78125 -36.46875 71.78125 -40.78125 C 71.78125 -45 70.828125 -48.785156 68.921875 -52.140625 C 67.015625 -55.503906 64.378906 -58.160156 61.015625 -60.109375 C 57.660156 -62.066406 53.875 -63.046875 49.65625 -63.046875 C 45.34375 -63.046875 41.53125 -62.066406 38.21875 -60.109375 C 34.90625 -58.160156 32.296875 -55.503906 30.390625 -52.140625 C 28.484375 -48.785156 27.53125 -45 27.53125 -40.78125 C 27.53125 -36.46875 28.484375 -32.65625 30.390625 -29.34375 C 32.296875 -26.03125 34.90625 -23.394531 38.21875 -21.4375 C 41.53125 -19.488281 45.34375 -18.515625 49.65625 -18.515625 Z M 49.65625 -18.515625 "/></g></g></g><g fill="#0e7c66" fill-opacity="1"><g transform="translate(174.029143, 111.032075)"><g/></g></g><g fill="#0e7c66" fill-opacity="1"><g transform="translate(202.470871, 111.032075)"><g/></g></g><g clip-path="url(#c90be7c49c)"><g fill="#0e7c66" fill-opacity="1"><g transform="translate(230.915166, 111.032075)"><g><path d="M 52.0625 -81.71875 L 59.296875 -81.71875 L 59.296875 -60.953125 L 49.8125 -60.953125 C 43.59375 -60.953125 39.148438 -59.492188 36.484375 -56.578125 C 33.828125 -53.671875 32.5 -48.90625 32.5 -42.28125 L 32.5 0 L 10.53125 0 L 10.53125 -81.265625 L 24.671875 -81.265625 L 28.59375 -71.328125 C 34.113281 -78.253906 41.9375 -81.71875 52.0625 -81.71875 Z M 52.0625 -81.71875 "/></g></g></g></g></g></g><g clip-path="url(#e8a69211ee)"><g transform="matrix(1, 0, 0, 1, 216, 206)"><g clip-path="url(#976a3f4e21)"><g clip-path="url(#69e7449583)"><path fill="#0e7c66" d="M 0.59375 0.261719 L 34.621094 0.261719 L 34.621094 22.425781 L 0.59375 22.425781 Z M 0.59375 0.261719 " fill-opacity="1" fill-rule="nonzero"/></g></g></g></g><g clip-path="url(#acefba7ec7)"><g transform="matrix(1, 0, 0, 1, 243, 119)"><g clip-path="url(#b35205c14e)"><g clip-path="url(#430f950e98)"><path fill="#0e7c66" d="M 0.777344 0.0546875 L 34.804688 0.0546875 L 34.804688 22.21875 L 0.777344 22.21875 Z M 0.777344 0.0546875 " fill-opacity="1" fill-rule="nonzero"/></g></g></g></g><g clip-path="url(#67ae0c0086)"><g transform="matrix(1, 0, 0, 1, 216, 119)"><g clip-path="url(#ba5ae25316)"><g clip-path="url(#57a891fee2)"><path fill="#0e7c66" d="M 0.597656 109.421875 L 0.597656 0.0742188 L 22.761719 0.0742188 L 22.761719 109.421875 Z M 0.597656 109.421875 " fill-opacity="1" fill-rule="nonzero"/></g></g></g></g><g clip-path="url(#67164a79bd)"><g transform="matrix(1, 0, 0, 1, 255, 119)"><g clip-path="url(#055f93a2f5)"><g clip-path="url(#9377736372)"><path fill="#0e7c66" d="M 0.621094 109.421875 L 0.621094 0.0742188 L 22.785156 0.0742188 L 22.785156 109.421875 Z M 0.621094 109.421875 " fill-opacity="1" fill-rule="nonzero"/></g></g></g></g></svg>